<svg width="18" height="19" viewBox="0 0 18 19" xmlns="http://www.w3.org/2000/svg">
<path d="M3.01275 13.8626C3.12952 13.9952 3.219 14.1552 3.27481 14.3314C3.33062 14.5076 3.35138 14.6955 3.33562 14.8818C3.25656 15.7441 3.10666 16.5961 2.88787 17.4268C4.45725 17.0158 5.41575 16.5399 5.85113 16.2905C6.09807 16.149 6.38245 16.1155 6.64987 16.1963C7.41649 16.4275 8.20661 16.5439 9 16.5424C13.4955 16.5424 16.875 12.9706 16.875 8.90747C16.875 4.84567 13.4955 1.2725 9 1.2725C4.5045 1.2725 1.125 4.84567 1.125 8.90747C1.125 10.7755 1.81912 12.5086 3.01275 13.8626ZM2.45812 18.8317C2.19158 18.8914 1.92416 18.9462 1.656 18.9958C1.431 19.0365 1.26 18.7719 1.34888 18.5352C1.44877 18.2687 1.54032 17.9984 1.62337 17.7246L1.62675 17.7119C1.90575 16.7957 2.133 15.742 2.21625 14.761C0.835875 13.1958 0 11.1471 0 8.90747C0 3.988 4.02975 0 9 0C13.9703 0 18 3.988 18 8.90747C18 13.8269 13.9703 17.8149 9 17.8149C8.10861 17.8163 7.22091 17.6854 6.35962 17.4256C5.77462 17.7602 4.51575 18.3698 2.45812 18.8317V18.8317Z" fill="#FBBF1E"/>
</svg>